# xmcd CD database file
#
# Track frame offsets:
#	150
#	20617
#	39905
#	56875
#	73257
#	96757
#	115850
#	134562
#	155430
#	172940
#	198295
#	215905
#
# Disc length: 3147 seconds
#
# Revision: 0
# Processed by: cddbd v1.5.1PL0 Copyright (c) Steve Scherf et al.
# Submitted via: CDex 1.51
#
DISCID=af0c490c
DTITLE=藤重政孝 ＆ ふれあい ＆ 青酢 ＆ キャップと瓶 ＆ Kimeru ＆ 甲斐田ゆき - THE PRINCE OF TENNIS ed．REQUEST
DYEAR=2003
DGENRE=Anime
TTITLE0=KEEP YOUR STYLE／藤重政孝
TTITLE1=風の旅人／ふれあい
TTITLE2=WHITE LINE／青酢
TTITLE3=キャップと瓶 - おめっとサンバ
TTITLE4=CHAIN OF MIND／Kimeru
TTITLE5=Happy×2☆DAY！！／青酢
TTITLE6=walk on／藤重政孝
TTITLE7=君の歌／ふれあい
TTITLE8=KEEP ON DREAMING／キャップと瓶
TTITLE9=You got game？／Kimeru
TTITLE10=おめっとサンバ〜SAMBA MAX〜／キャップと瓶
TTITLE11=シャッターチャンスは一度だけ！〜ピンポイントスマッシュVERSION〜／甲斐田ゆき
EXTD=YEAR: 2003
EXTT0=
EXTT1=
EXTT2=
EXTT3=
EXTT4=
EXTT5=
EXTT6=
EXTT7=
EXTT8=
EXTT9=
EXTT10=
EXTT11=
PLAYORDER=
